# xmcd
#
# Track frame offsets: 
#        150
#        21157
#        48839
#        70245
#        89975
#        107520
#        125957
#        148700
#        166560
#        183452
#        203170
#        219232
#        235732
#        259797
#        277935
#        301807
#        324167
#        342382
#
# Disc length: 4796 seconds
#
# Revision: 0
# Processed by: cddbd v1.5.2PL0 Copyright (c) Steve Scherf et al.
# Submitted via: ExactAudioCopy v0.99pb5
#
DISCID=0112ba12
DTITLE=Bachman-Turner Overdrive - The Definitive Collection
DYEAR=2008
DGENRE=Classic Rock
TTITLE0=Gimme Your Money Please
TTITLE1=Blue Collar
TTITLE2=Takin' Care Of Business
TTITLE3=Let It Ride
TTITLE4=You Ain't Seen Nothing Yet
TTITLE5=Not Fragile
TTITLE6=Rock Is My Life, And This Is My Song
TTITLE7=Roll On Down The Highway
TTITLE8=Free Wheelin
TTITLE9=Four Wheel Drive
TTITLE10=Hey You
TTITLE11=Take It Like A Man
TTITLE12=Looking Out For No.1
TTITLE13=Down To The Line
TTITLE14=Shotgun Rider
TTITLE15=Freeways
TTITLE16=Down The Road
TTITLE17=Heartaches
EXTD=
EXTT0=
EXTT1=
EXTT2=
EXTT3=
EXTT4=
EXTT5=
EXTT6=
EXTT7=
EXTT8=
EXTT9=
EXTT10=
EXTT11=
EXTT12=
EXTT13=
EXTT14=
EXTT15=
EXTT16=
EXTT17=
PLAYORDER=
